DBRep_DrawableShape

CASCADE Topology V1, (c) Matra-Datavision
Locations 12
1
              1               0               0               0 
              0               1               0               0 
              0               0               1               0 
1
              1               0               0               0 
              0               1               0               0 
              0               0               1               0 
1
              1               0               0               0 
              0               1               0               0 
              0               0               1               0 
1
              1               0               0               0 
              0               1               0               0 
              0               0               1               0 
2  2 1 3 1 4 -1 0
1
              1               0               0               0 
              0               1               0               0 
              0               0               1              10 
2  2 1 3 1 4 -1 6 1 0
2  4 1 3 -1 2 -1 0
2  6 -1 4 1 3 -1 2 -1 0
2  4 -1 0
2  2 1 3 1 0
2  4 -1 6 1 0
Curve2ds 128
1 0 0 0 -1 
1 1 0 0 -1 
1 1 0 0 -1 
1 0 0 0 -1 
1 0 0 1 0 
1 0 -10 1 0 
1 1 0 0 -1 
1 0 0 0 -1 
1 0 0 1 0 
1 0 -10 1 0 
1 1 0 0 -1 
1 0 0 0 -1 
1 0 0 1 0 
1 0 -10 1 0 
1 1 0 0 -1 
1 0 0 0 -1 
1 0 0 1 0 
1 0 -10 1 0 
1 1 0 0 -1 
1 0 0 0 -1 
1 0 0 1 0 
1 0 -10 1 0 
1 1 0 0 -1 
1 0 0 0 -1 
1 0 0 1 0 
1 0 -10 1 0 
1 1 0 0 -1 
1 0 0 0 -1 
1 0 0 1 0 
1 0 -10 1 0 
1 1 0 0 -1 
1 0 0 0 -1 
1 0 0 1 0 
1 0 -10 1 0 
1 1 0 0 -1 
1 0 0 0 -1 
1 0 0 1 0 
1 0 -10 1 0 
1 1 0 0 -1 
1 0 0 0 -1 
1 0 0 1 0 
1 0 -10 1 0 
1 1 0 0 -1 
1 0 0 0 -1 
1 0 0 1 0 
1 0 -10 1 0 
1 1 0 0 -1 
1 0 0 0 -1 
1 0 0 1 0 
1 0 -10 1 0 
1 1 0 0 -1 
1 0 0 0 -1 
1 0 0 1 0 
1 0 -10 1 0 
1 1 0 0 -1 
1 0 0 0 -1 
1 0 0 1 0 
1 0 -10 1 0 
1 1 0 0 -1 
1 0 0 0 -1 
1 0 0 1 0 
1 0 -10 1 0 
1 0 0 1 0 
1 0 -10 1 0 
1 0 0 0 -1 
1 1 0 0 -1 
1 1 0 0 -1 
1 0 0 0 -1 
1 0 0 1 0 
1 0 -10 1 0 
1 1 0 0 -1 
1 0 0 0 -1 
1 0 0 1 0 
1 0 -10 1 0 
1 1 0 0 -1 
1 0 0 0 -1 
1 0 0 1 0 
1 0 -10 1 0 
1 1 0 0 -1 
1 0 0 0 -1 
1 0 0 1 0 
1 0 -10 1 0 
1 1 0 0 -1 
1 0 0 0 -1 
1 0 0 1 0 
1 0 -10 1 0 
1 1 0 0 -1 
1 0 0 0 -1 
1 0 0 1 0 
1 0 -10 1 0 
1 1 0 0 -1 
1 0 0 0 -1 
1 0 0 1 0 
1 0 -10 1 0 
1 1 0 0 -1 
1 0 0 0 -1 
1 0 0 1 0 
1 0 -10 1 0 
1 1 0 0 -1 
1 0 0 0 -1 
1 0 0 1 0 
1 0 -10 1 0 
1 1 0 0 -1 
1 0 0 0 -1 
1 0 0 1 0 
1 0 -10 1 0 
1 1 0 0 -1 
1 0 0 0 -1 
1 0 0 1 0 
1 0 -10 1 0 
1 1 0 0 -1 
1 0 0 0 -1 
1 0 0 1 0 
1 0 -10 1 0 
1 1 0 0 -1 
1 0 0 0 -1 
1 0 0 1 0 
1 0 -10 1 0 
1 1 0 0 -1 
1 0 0 0 -1 
1 0 0 1 0 
1 0 -10 1 0 
1 1 0 0 -1 
1 0 0 0 -1 
1 0 0 1 0 
1 0 -10 1 0 
1 0 0 1 0 
1 0 -10 1 0 
Curves 64
1 96.310928000000004 -75.186768000000001 0 0 0 1 
1 72.927734000000001 -76.365234000000001 0 0 0 1 
7 0 0  3 4 2  96.310928000000004 -75.186768000000001 0  86.404364999999999 -74.909585000000007 0  78.980768999999995 -75.122405000000001 0  72.927734000000001 -76.365234000000001 0 
 0 4 1 4
1 60.332031000000001 -84.630859000000001 0 0 0 1 
7 0 0  3 4 2  72.927734000000001 -76.365234000000001 0  66.874700000000004 -77.608063000000001 0  62.001511000000001 -79.947678999999994 0  60.332031000000001 -84.630859000000001 0 
 0 4 1 4
1 61.751953 -102.67773 0 0 0 1 
7 0 0  3 4 2  60.332031000000001 -84.630859000000001 0  58.662559000000002 -89.314019000000002 0  60.251930999999999 -95.570772000000005 0  61.751953 -102.67773 0 
 0 4 1 4
1 63.517578 -125.41211 0 0 0 1 
7 0 0  3 4 2  61.751953 -102.67773 0  63.251973 -109.7847 0  64.763863999999998 -117.71431 0  63.517578 -125.41211 0 
 0 4 1 4
1 54.609375 -148.91015999999999 0 0 0 1 
7 0 0  3 4 2  63.517578 -125.41211 0  62.271290999999998 -133.10990999999999 0  58.202489 -140.85928000000001 0  54.609375 -148.91015999999999 0 
 0 4 1 4
1 48.835937000000001 -174.39452999999997 0 0 0 1 
7 0 0  3 4 2  54.609375 -148.91015999999999 0  51.016261 -156.96104 0  47.896717000000002 -165.35576999999998 0  48.835937000000001 -174.39452999999997 0 
 0 4 1 4
1 61.957031000000001 -200.42577999999997 0 0 0 1 
7 0 0  3 4 2  48.835937000000001 -174.39452999999997 0  49.775158000000005 -183.43327999999997 0  54.730941000000001 -192.87258999999997 0  61.957031000000001 -200.42577999999997 0 
 0 4 1 4
1 88.902343999999999 -214.98827999999997 0 0 0 1 
7 0 0  3 4 2  61.957031000000001 -200.42577999999997 0  69.183121 -207.97896999999998 0  78.706838000000005 -213.65850999999998 0  88.902343999999999 -214.98827999999997 0 
 0 4 1 4
1 118.68359 -207.81054999999998 0 0 0 1 
7 0 0  3 4 2  88.902343999999999 -214.98827999999997 0  99.097838999999993 -216.31804999999997 0  109.77930000000001 -213.27490999999998 0  118.68359 -207.81054999999998 0 
 0 4 1 4
1 137.81640999999999 -185.87499999999997 0 0 0 1 
7 0 0  3 4 2  118.68359 -207.81054999999998 0  127.58788999999999 -202.34618999999998 0  134.7465 -194.45361999999997 0  137.81640999999999 -185.87499999999997 0 
 0 4 1 4
1 138.08398 -159.24804999999998 0 0 0 1 
7 0 0  3 4 2  137.81640999999999 -185.87499999999997 0  140.88630999999998 -177.29638999999997 0  139.76416999999998 -168.27110999999996 0  138.08398 -159.24804999999998 0 
 0 4 1 4
1 134.70116999999999 -132.46483999999998 0 0 0 1 
7 0 0  3 4 2  138.08398 -159.24804999999998 0  136.40379999999999 -150.22498999999999 0  134.16318999999999 -141.16264999999999 0  134.70116999999999 -132.46483999999998 0 
 0 4 1 4
1 141.28125 -107.53515999999998 0 0 0 1 
7 0 0  3 4 2  134.70116999999999 -132.46483999999998 0  135.23916 -123.76703999999998 0  138.56690999999998 -115.16797999999999 0  141.28125 -107.53515999999998 0 
 0 4 1 4
1 143.84961000000001 -88.001952999999972 0 0 0 1 
7 0 0  3 4 2  141.28125 -107.53515999999998 0  143.99558999999999 -99.902327999999983 0  146.23979 -93.173497999999981 0  143.84961000000001 -88.001952999999972 0 
 0 4 1 4
1 126.30078000000002 -78.349608999999973 0 0 0 1 
7 0 0  3 4 2  143.84961000000001 -88.001952999999972 0  141.45942000000002 -82.83041099999997 0  134.80176 -80.126115999999968 0  126.30078000000002 -78.349608999999973 0 
 0 4 1 4
7 0 0  3 4 2  126.30078000000002 -78.349608999999973 0  117.79980000000002 -76.573101999999977 0  107.29045000000002 -75.780059999999978 0  96.310928000000004 -75.186768000000001 0 
 0 4 1 4
1 93.851562000000015 -76.689452999999986 0 0 0 1 
1 125.89258000000001 -80.308593999999971 0 0 0 1 
7 0 0  3 4 2  93.851562000000015 -76.689452999999986 0  107.14006000000002 -77.774199999999979 0  117.59907000000001 -78.575444999999974 0  125.89258000000001 -80.308593999999971 0 
 0 4 1 4
1 142.03516000000002 -88.841796999999971 0 0 0 1 
7 0 0  3 4 2  125.89258000000001 -80.308593999999971 0  134.18608 -82.041742999999968 0  140.14883 -84.76043599999997 0  142.03516000000002 -88.841796999999971 0 
 0 4 1 4
1 139.39844000000002 -106.86522999999997 0 0 0 1 
7 0 0  3 4 2  142.03516000000002 -88.841796999999971 0  143.92148000000003 -92.923155999999977 0  142.09756000000002 -99.275127999999967 0  139.39844000000002 -106.86522999999997 0 
 0 4 1 4
1 132.70508000000001 -132.34179999999998 0 0 0 1 
7 0 0  3 4 2  139.39844000000002 -106.86522999999997 0  136.69929000000002 -114.45533999999996 0  133.26923000000002 -123.22108999999998 0  132.70508000000001 -132.34179999999998 0 
 0 4 1 4
1 136.11914000000002 -159.61522999999997 0 0 0 1 
7 0 0  3 4 2  132.70508000000001 -132.34179999999998 0  132.14093 -141.46250999999998 0  134.45408 -150.67337999999998 0  136.11914000000002 -159.61522999999997 0 
 0 4 1 4
1 135.93164000000002 -185.20116999999996 0 0 0 1 
7 0 0  3 4 2  136.11914000000002 -159.61522999999997 0  137.78420000000003 -168.55708999999996 0  138.79857000000001 -177.18975999999998 0  135.93164000000002 -185.20116999999996 0 
 0 4 1 4
1 117.63672000000001 -206.10546999999997 0 0 0 1 
7 0 0  3 4 2  135.93164000000002 -185.20116999999996 0  133.06471000000002 -193.21258999999995 0  126.21404000000001 -200.84176999999997 0  117.63672000000001 -206.10546999999997 0 
 0 4 1 4
1 89.160156000000015 -213.00390999999996 0 0 0 1 
7 0 0  3 4 2  117.63672000000001 -206.10546999999997 0  109.05940000000001 -211.36916999999997 0  98.787243000000018 -214.25953999999996 0  89.160156000000015 -213.00390999999996 0 
 0 4 1 4
1 63.400391000000013 -199.04296999999997 0 0 0 1 
7 0 0  3 4 2  89.160156000000015 -213.00390999999996 0  79.533079000000015 -211.74826999999996 0  70.364739000000014 -206.32256999999996 0  63.400391000000013 -199.04296999999997 0 
 0 4 1 4
1 50.824219000000014 -174.18749999999997 0 0 0 1 
7 0 0  3 4 2  63.400391000000013 -199.04296999999997 0  56.436042000000015 -191.76336999999998 0  51.702964000000016 -182.64425999999997 0  50.824219000000014 -174.18749999999997 0 
 0 4 1 4
1 56.435547000000014 -149.72460999999998 0 0 0 1 
7 0 0  3 4 2  50.824219000000014 -174.18749999999997 0  49.945475000000016 -165.73073999999997 0  52.878611000000014 -157.69442999999998 0  56.435547000000014 -149.72460999999998 0 
 0 4 1 4
1 65.492187000000015 -125.73241999999999 0 0 0 1 
7 0 0  3 4 2  56.435547000000014 -149.72460999999998 0  59.992483000000014 -141.75478999999999 0  64.171016000000009 -133.89275999999998 0  65.492187000000015 -125.73241999999999 0 
 0 4 1 4
1 63.708984000000015 -102.26366999999999 0 0 0 1 
7 0 0  3 4 2  65.492187000000015 -125.73241999999999 0  66.813361000000015 -117.57207 0  65.214324000000019 -109.39583999999999 0  63.708984000000015 -102.26366999999999 0 
 0 4 1 4
1 62.216797000000014 -85.302733999999987 0 0 0 1 
7 0 0  3 4 2  63.708984000000015 -102.26366999999999 0  62.203645000000016 -95.131506999999985 0  60.893168000000017 -89.015743999999984 0  62.216797000000014 -85.302733999999987 0 
 0 4 1 4
1 73.330078000000015 -78.324218999999985 0 0 0 1 
7 0 0  3 4 2  62.216797000000014 -85.302733999999987 0  63.540419000000014 -81.589744999999994 0  67.551803000000007 -79.510632999999984 0  73.330078000000015 -78.324218999999985 0 
 0 4 1 4
7 0 0  3 4 2  73.330078000000015 -78.324218999999985 0  79.108353000000008 -77.137803999999988 0  86.462958000000015 -76.909584999999979 0  93.851562000000015 -76.689452999999986 0 
 0 4 1 4
Polygon3D 0
PolygonOnTriangulations 0
Surfaces 33
6 -0 -0 -1 
7 0 0  3 4 2  96.310928000000004 -75.186768000000001 0  86.404364999999999 -74.909585000000007 0  78.980768999999995 -75.122405000000001 0  72.927734000000001 -76.365234000000001 0 
 0 4 1 4
6 -0 -0 -1 
7 0 0  3 4 2  126.30078000000002 -78.349608999999973 0  117.79980000000002 -76.573101999999977 0  107.29045000000002 -75.780059999999978 0  96.310928000000004 -75.186768000000001 0 
 0 4 1 4
6 -0 -0 -1 
7 0 0  3 4 2  72.927734000000001 -76.365234000000001 0  66.874700000000004 -77.608063000000001 0  62.001511000000001 -79.947678999999994 0  60.332031000000001 -84.630859000000001 0 
 0 4 1 4
6 -0 -0 -1 
7 0 0  3 4 2  60.332031000000001 -84.630859000000001 0  58.662559000000002 -89.314019000000002 0  60.251930999999999 -95.570772000000005 0  61.751953 -102.67773 0 
 0 4 1 4
6 -0 -0 -1 
7 0 0  3 4 2  61.751953 -102.67773 0  63.251973 -109.7847 0  64.763863999999998 -117.71431 0  63.517578 -125.41211 0 
 0 4 1 4
6 -0 -0 -1 
7 0 0  3 4 2  63.517578 -125.41211 0  62.271290999999998 -133.10990999999999 0  58.202489 -140.85928000000001 0  54.609375 -148.91015999999999 0 
 0 4 1 4
6 -0 -0 -1 
7 0 0  3 4 2  54.609375 -148.91015999999999 0  51.016261 -156.96104 0  47.896717000000002 -165.35576999999998 0  48.835937000000001 -174.39452999999997 0 
 0 4 1 4
6 -0 -0 -1 
7 0 0  3 4 2  48.835937000000001 -174.39452999999997 0  49.775158000000005 -183.43327999999997 0  54.730941000000001 -192.87258999999997 0  61.957031000000001 -200.42577999999997 0 
 0 4 1 4
6 -0 -0 -1 
7 0 0  3 4 2  61.957031000000001 -200.42577999999997 0  69.183121 -207.97896999999998 0  78.706838000000005 -213.65850999999998 0  88.902343999999999 -214.98827999999997 0 
 0 4 1 4
6 -0 -0 -1 
7 0 0  3 4 2  88.902343999999999 -214.98827999999997 0  99.097838999999993 -216.31804999999997 0  109.77930000000001 -213.27490999999998 0  118.68359 -207.81054999999998 0 
 0 4 1 4
6 -0 -0 -1 
7 0 0  3 4 2  118.68359 -207.81054999999998 0  127.58788999999999 -202.34618999999998 0  134.7465 -194.45361999999997 0  137.81640999999999 -185.87499999999997 0 
 0 4 1 4
6 -0 -0 -1 
7 0 0  3 4 2  137.81640999999999 -185.87499999999997 0  140.88630999999998 -177.29638999999997 0  139.76416999999998 -168.27110999999996 0  138.08398 -159.24804999999998 0 
 0 4 1 4
6 -0 -0 -1 
7 0 0  3 4 2  138.08398 -159.24804999999998 0  136.40379999999999 -150.22498999999999 0  134.16318999999999 -141.16264999999999 0  134.70116999999999 -132.46483999999998 0 
 0 4 1 4
6 -0 -0 -1 
7 0 0  3 4 2  134.70116999999999 -132.46483999999998 0  135.23916 -123.76703999999998 0  138.56690999999998 -115.16797999999999 0  141.28125 -107.53515999999998 0 
 0 4 1 4
6 -0 -0 -1 
7 0 0  3 4 2  141.28125 -107.53515999999998 0  143.99558999999999 -99.902327999999983 0  146.23979 -93.173497999999981 0  143.84961000000001 -88.001952999999972 0 
 0 4 1 4
6 -0 -0 -1 
7 0 0  3 4 2  143.84961000000001 -88.001952999999972 0  141.45942000000002 -82.83041099999997 0  134.80176 -80.126115999999968 0  126.30078000000002 -78.349608999999973 0 
 0 4 1 4
6 -0 -0 -1 
7 0 0  3 4 2  93.851562000000015 -76.689452999999986 0  107.14006000000002 -77.774199999999979 0  117.59907000000001 -78.575444999999974 0  125.89258000000001 -80.308593999999971 0 
 0 4 1 4
6 -0 -0 -1 
7 0 0  3 4 2  73.330078000000015 -78.324218999999985 0  79.108353000000008 -77.137803999999988 0  86.462958000000015 -76.909584999999979 0  93.851562000000015 -76.689452999999986 0 
 0 4 1 4
6 -0 -0 -1 
7 0 0  3 4 2  125.89258000000001 -80.308593999999971 0  134.18608 -82.041742999999968 0  140.14883 -84.76043599999997 0  142.03516000000002 -88.841796999999971 0 
 0 4 1 4
6 -0 -0 -1 
7 0 0  3 4 2  142.03516000000002 -88.841796999999971 0  143.92148000000003 -92.923155999999977 0  142.09756000000002 -99.275127999999967 0  139.39844000000002 -106.86522999999997 0 
 0 4 1 4
6 -0 -0 -1 
7 0 0  3 4 2  139.39844000000002 -106.86522999999997 0  136.69929000000002 -114.45533999999996 0  133.26923000000002 -123.22108999999998 0  132.70508000000001 -132.34179999999998 0 
 0 4 1 4
6 -0 -0 -1 
7 0 0  3 4 2  132.70508000000001 -132.34179999999998 0  132.14093 -141.46250999999998 0  134.45408 -150.67337999999998 0  136.11914000000002 -159.61522999999997 0 
 0 4 1 4
6 -0 -0 -1 
7 0 0  3 4 2  136.11914000000002 -159.61522999999997 0  137.78420000000003 -168.55708999999996 0  138.79857000000001 -177.18975999999998 0  135.93164000000002 -185.20116999999996 0 
 0 4 1 4
6 -0 -0 -1 
7 0 0  3 4 2  135.93164000000002 -185.20116999999996 0  133.06471000000002 -193.21258999999995 0  126.21404000000001 -200.84176999999997 0  117.63672000000001 -206.10546999999997 0 
 0 4 1 4
6 -0 -0 -1 
7 0 0  3 4 2  117.63672000000001 -206.10546999999997 0  109.05940000000001 -211.36916999999997 0  98.787243000000018 -214.25953999999996 0  89.160156000000015 -213.00390999999996 0 
 0 4 1 4
6 -0 -0 -1 
7 0 0  3 4 2  89.160156000000015 -213.00390999999996 0  79.533079000000015 -211.74826999999996 0  70.364739000000014 -206.32256999999996 0  63.400391000000013 -199.04296999999997 0 
 0 4 1 4
6 -0 -0 -1 
7 0 0  3 4 2  63.400391000000013 -199.04296999999997 0  56.436042000000015 -191.76336999999998 0  51.702964000000016 -182.64425999999997 0  50.824219000000014 -174.18749999999997 0 
 0 4 1 4
6 -0 -0 -1 
7 0 0  3 4 2  50.824219000000014 -174.18749999999997 0  49.945475000000016 -165.73073999999997 0  52.878611000000014 -157.69442999999998 0  56.435547000000014 -149.72460999999998 0 
 0 4 1 4
6 -0 -0 -1 
7 0 0  3 4 2  56.435547000000014 -149.72460999999998 0  59.992483000000014 -141.75478999999999 0  64.171016000000009 -133.89275999999998 0  65.492187000000015 -125.73241999999999 0 
 0 4 1 4
6 -0 -0 -1 
7 0 0  3 4 2  65.492187000000015 -125.73241999999999 0  66.813361000000015 -117.57207 0  65.214324000000019 -109.39583999999999 0  63.708984000000015 -102.26366999999999 0 
 0 4 1 4
6 -0 -0 -1 
7 0 0  3 4 2  63.708984000000015 -102.26366999999999 0  62.203645000000016 -95.131506999999985 0  60.893168000000017 -89.015743999999984 0  62.216797000000014 -85.302733999999987 0 
 0 4 1 4
6 -0 -0 -1 
7 0 0  3 4 2  62.216797000000014 -85.302733999999987 0  63.540419000000014 -81.589744999999994 0  67.551803000000007 -79.510632999999984 0  73.330078000000015 -78.324218999999985 0 
 0 4 1 4
1 97.564919220031001 -141.72695017301399 0 0 0 1 1 0 -0 -0 1 0 
Triangulations 0

TShapes 165
Ve
1e-07
96.310928 -75.186768 0
0 0

0101101
*
Ed
 1e-07 1 1 0
1  1 0 0 10
2  1 1 0 0 10
2  2 2 0 0 10
0

0101000
+165 5 -165 7 *
Ve
1e-07
72.927734 -76.365234 0
0 0

0101101
*
Ed
 1e-07 1 1 0
1  2 0 0 10
2  3 1 0 0 10
2  4 3 0 0 10
4 G1 1 0 3 0
0

0101000
+163 5 -163 7 *
Ed
 1e-07 1 1 0
1  3 0 0 1
2  5 1 8 0 1
2  6 1 9 0 1
0

0101000
+165 0 -163 0 *
Wi

0101100
+164 0 -162 0 -161 5 +161 7 *
Fa
0  1e-07 1 0

0101000
+160 0 *
Ve
1e-07
60.332031 -84.630859 0
0 0

0101101
*
Ed
 1e-07 1 1 0
1  4 0 0 10
2  7 3 0 0 10
2  8 4 0 0 10
4 G1 3 0 4 0
0

0101000
+158 5 -158 7 *
Ed
 1e-07 1 1 0
1  5 0 0 1
2  9 3 8 0 1
2  10 3 9 0 1
0

0101000
+163 0 -158 0 *
Wi

0101100
+162 0 -157 0 -156 5 +156 7 *
Fa
0  1e-07 3 0

0101000
+155 0 *
Ve
1e-07
61.751953 -102.67773 0
0 0

0101101
*
Ed
 1e-07 1 1 0
1  6 0 0 10
2  11 4 0 0 10
2  12 5 0 0 10
4 G1 4 0 5 0
0

0101000
+153 5 -153 7 *
Ed
 1e-07 1 1 0
1  7 0 0 1
2  13 4 8 0 1
2  14 4 9 0 1
0

0101000
+158 0 -153 0 *
Wi

0101100
+157 0 -152 0 -151 5 +151 7 *
Fa
0  1e-07 4 0

0101000
+150 0 *
Ve
1e-07
63.517578 -125.41211 0
0 0

0101101
*
Ed
 1e-07 1 1 0
1  8 0 0 10
2  15 5 0 0 10
2  16 6 0 0 10
4 G1 5 0 6 0
0

0101000
+148 5 -148 7 *
Ed
 1e-07 1 1 0
1  9 0 0 1
2  17 5 8 0 1
2  18 5 9 0 1
0

0101000
+153 0 -148 0 *
Wi

0101100
+152 0 -147 0 -146 5 +146 7 *
Fa
0  1e-07 5 0

0101000
+145 0 *
Ve
1e-07
54.609375 -148.91016 0
0 0

0101101
*
Ed
 1e-07 1 1 0
1  10 0 0 10
2  19 6 0 0 10
2  20 7 0 0 10
4 C1 6 0 7 0
0

0101000
+143 5 -143 7 *
Ed
 1e-07 1 1 0
1  11 0 0 1
2  21 6 8 0 1
2  22 6 9 0 1
0

0101000
+148 0 -143 0 *
Wi

0101100
+147 0 -142 0 -141 5 +141 7 *
Fa
0  1e-07 6 0

0101000
+140 0 *
Ve
1e-07
48.835937 -174.39453 0
0 0

0101101
*
Ed
 1e-07 1 1 0
1  12 0 0 10
2  23 7 0 0 10
2  24 8 0 0 10
4 G1 7 0 8 0
0

0101000
+138 5 -138 7 *
Ed
 1e-07 1 1 0
1  13 0 0 1
2  25 7 8 0 1
2  26 7 9 0 1
0

0101000
+143 0 -138 0 *
Wi

0101100
+142 0 -137 0 -136 5 +136 7 *
Fa
0  1e-07 7 0

0101000
+135 0 *
Ve
1e-07
61.957031 -200.42578 0
0 0

0101101
*
Ed
 1e-07 1 1 0
1  14 0 0 10
2  27 8 0 0 10
2  28 9 0 0 10
4 C1 8 0 9 0
0

0101000
+133 5 -133 7 *
Ed
 1e-07 1 1 0
1  15 0 0 1
2  29 8 8 0 1
2  30 8 9 0 1
0

0101000
+138 0 -133 0 *
Wi

0101100
+137 0 -132 0 -131 5 +131 7 *
Fa
0  1e-07 8 0

0101000
+130 0 *
Ve
1e-07
88.902344 -214.98828 0
0 0

0101101
*
Ed
 1e-07 1 1 0
1  16 0 0 10
2  31 9 0 0 10
2  32 10 0 0 10
4 G1 9 0 10 0
0

0101000
+128 5 -128 7 *
Ed
 1e-07 1 1 0
1  17 0 0 1
2  33 9 8 0 1
2  34 9 9 0 1
0

0101000
+133 0 -128 0 *
Wi

0101100
+132 0 -127 0 -126 5 +126 7 *
Fa
0  1e-07 9 0

0101000
+125 0 *
Ve
1e-07
118.68359 -207.81055 0
0 0

0101101
*
Ed
 1e-07 1 1 0
1  18 0 0 10
2  35 10 0 0 10
2  36 11 0 0 10
4 G1 10 0 11 0
0

0101000
+123 5 -123 7 *
Ed
 1e-07 1 1 0
1  19 0 0 1
2  37 10 8 0 1
2  38 10 9 0 1
0

0101000
+128 0 -123 0 *
Wi

0101100
+127 0 -122 0 -121 5 +121 7 *
Fa
0  1e-07 10 0

0101000
+120 0 *
Ve
1e-07
137.81641 -185.875 0
0 0

0101101
*
Ed
 1e-07 1 1 0
1  20 0 0 10
2  39 11 0 0 10
2  40 12 0 0 10
4 G1 11 0 12 0
0

0101000
+118 5 -118 7 *
Ed
 1e-07 1 1 0
1  21 0 0 1
2  41 11 8 0 1
2  42 11 9 0 1
0

0101000
+123 0 -118 0 *
Wi

0101100
+122 0 -117 0 -116 5 +116 7 *
Fa
0  1e-07 11 0

0101000
+115 0 *
Ve
1e-07
138.08398 -159.24805 0
0 0

0101101
*
Ed
 1e-07 1 1 0
1  22 0 0 10
2  43 12 0 0 10
2  44 13 0 0 10
4 G1 12 0 13 0
0

0101000
+113 5 -113 7 *
Ed
 1e-07 1 1 0
1  23 0 0 1
2  45 12 8 0 1
2  46 12 9 0 1
0

0101000
+118 0 -113 0 *
Wi

0101100
+117 0 -112 0 -111 5 +111 7 *
Fa
0  1e-07 12 0

0101000
+110 0 *
Ve
1e-07
134.70117 -132.46484 0
0 0

0101101
*
Ed
 1e-07 1 1 0
1  24 0 0 10
2  47 13 0 0 10
2  48 14 0 0 10
4 G1 13 0 14 0
0

0101000
+108 5 -108 7 *
Ed
 1e-07 1 1 0
1  25 0 0 1
2  49 13 8 0 1
2  50 13 9 0 1
0

0101000
+113 0 -108 0 *
Wi

0101100
+112 0 -107 0 -106 5 +106 7 *
Fa
0  1e-07 13 0

0101000
+105 0 *
Ve
1e-07
141.28125 -107.53516 0
0 0

0101101
*
Ed
 1e-07 1 1 0
1  26 0 0 10
2  51 14 0 0 10
2  52 15 0 0 10
4 G1 14 0 15 0
0

0101000
+103 5 -103 7 *
Ed
 1e-07 1 1 0
1  27 0 0 1
2  53 14 8 0 1
2  54 14 9 0 1
0

0101000
+108 0 -103 0 *
Wi

0101100
+107 0 -102 0 -101 5 +101 7 *
Fa
0  1e-07 14 0

0101000
+100 0 *
Ve
1e-07
143.84961 -88.001953 0
0 0

0101101
*
Ed
 1e-07 1 1 0
1  28 0 0 10
2  55 15 0 0 10
2  56 16 0 0 10
4 G1 15 0 16 0
0

0101000
+98 5 -98 7 *
Ed
 1e-07 1 1 0
1  29 0 0 1
2  57 15 8 0 1
2  58 15 9 0 1
0

0101000
+103 0 -98 0 *
Wi

0101100
+102 0 -97 0 -96 5 +96 7 *
Fa
0  1e-07 15 0

0101000
+95 0 *
Ve
1e-07
126.30078 -78.349609 0
0 0

0101101
*
Ed
 1e-07 1 1 0
1  30 0 0 10
2  59 16 0 0 10
2  60 2 0 0 10
4 C1 16 0 2 0
0

0101000
+93 5 -93 7 *
Ed
 1e-07 1 1 0
1  31 0 0 1
2  61 16 8 0 1
2  62 16 9 0 1
0

0101000
+98 0 -93 0 *
Wi

0101100
+97 0 -92 0 -91 5 +91 7 *
Fa
0  1e-07 16 0

0101000
+90 0 *
Ed
 1e-07 1 1 0
1  32 0 0 1
2  63 2 8 0 1
2  64 2 9 0 1
0

0101000
+93 0 -165 0 *
Wi

0101100
+92 0 -164 0 -88 5 +88 7 *
Fa
0  1e-07 2 0

0101000
+87 0 *
Ve
1e-07
93.851562 -76.689453 0
0 0

0101101
*
Ed
 1e-07 1 1 0
1  33 0 0 10
2  65 17 0 0 10
2  66 18 0 0 10
0

0101000
+85 5 -85 7 *
Ve
1e-07
125.89258 -80.308594 0
0 0

0101101
*
Ed
 1e-07 1 1 0
1  34 0 0 10
2  67 17 0 0 10
2  68 19 0 0 10
4 G1 17 0 19 0
0

0101000
+83 5 -83 7 *
Ed
 1e-07 1 1 0
1  35 0 0 1
2  69 17 8 0 1
2  70 17 9 0 1
0

0101000
+85 0 -83 0 *
Wi

0101100
+84 0 -82 0 -81 5 +81 7 *
Fa
0  1e-07 17 0

0101000
+80 0 *
Ve
1e-07
142.03516 -88.841797 0
0 0

0101101
*
Ed
 1e-07 1 1 0
1  36 0 0 10
2  71 19 0 0 10
2  72 20 0 0 10
4 G1 19 0 20 0
0

0101000
+78 5 -78 7 *
Ed
 1e-07 1 1 0
1  37 0 0 1
2  73 19 8 0 1
2  74 19 9 0 1
0

0101000
+83 0 -78 0 *
Wi

0101100
+82 0 -77 0 -76 5 +76 7 *
Fa
0  1e-07 19 0

0101000
+75 0 *
Ve
1e-07
139.39844 -106.86523 0
0 0

0101101
*
Ed
 1e-07 1 1 0
1  38 0 0 10
2  75 20 0 0 10
2  76 21 0 0 10
4 G1 20 0 21 0
0

0101000
+73 5 -73 7 *
Ed
 1e-07 1 1 0
1  39 0 0 1
2  77 20 8 0 1
2  78 20 9 0 1
0

0101000
+78 0 -73 0 *
Wi

0101100
+77 0 -72 0 -71 5 +71 7 *
Fa
0  1e-07 20 0

0101000
+70 0 *
Ve
1e-07
132.70508 -132.3418 0
0 0

0101101
*
Ed
 1e-07 1 1 0
1  40 0 0 10
2  79 21 0 0 10
2  80 22 0 0 10
4 C1 21 0 22 0
0

0101000
+68 5 -68 7 *
Ed
 1e-07 1 1 0
1  41 0 0 1
2  81 21 8 0 1
2  82 21 9 0 1
0

0101000
+73 0 -68 0 *
Wi

0101100
+72 0 -67 0 -66 5 +66 7 *
Fa
0  1e-07 21 0

0101000
+65 0 *
Ve
1e-07
136.11914 -159.61523 0
0 0

0101101
*
Ed
 1e-07 1 1 0
1  42 0 0 10
2  83 22 0 0 10
2  84 23 0 0 10
4 G1 22 0 23 0
0

0101000
+63 5 -63 7 *
Ed
 1e-07 1 1 0
1  43 0 0 1
2  85 22 8 0 1
2  86 22 9 0 1
0

0101000
+68 0 -63 0 *
Wi

0101100
+67 0 -62 0 -61 5 +61 7 *
Fa
0  1e-07 22 0

0101000
+60 0 *
Ve
1e-07
135.93164 -185.20117 0
0 0

0101101
*
Ed
 1e-07 1 1 0
1  44 0 0 10
2  87 23 0 0 10
2  88 24 0 0 10
4 G1 23 0 24 0
0

0101000
+58 5 -58 7 *
Ed
 1e-07 1 1 0
1  45 0 0 1
2  89 23 8 0 1
2  90 23 9 0 1
0

0101000
+63 0 -58 0 *
Wi

0101100
+62 0 -57 0 -56 5 +56 7 *
Fa
0  1e-07 23 0

0101000
+55 0 *
Ve
1e-07
117.63672 -206.10547 0
0 0

0101101
*
Ed
 1e-07 1 1 0
1  46 0 0 10
2  91 24 0 0 10
2  92 25 0 0 10
4 C1 24 0 25 0
0

0101000
+53 5 -53 7 *
Ed
 1e-07 1 1 0
1  47 0 0 1
2  93 24 8 0 1
2  94 24 9 0 1
0

0101000
+58 0 -53 0 *
Wi

0101100
+57 0 -52 0 -51 5 +51 7 *
Fa
0  1e-07 24 0

0101000
+50 0 *
Ve
1e-07
89.160156 -213.00391 0
0 0

0101101
*
Ed
 1e-07 1 1 0
1  48 0 0 10
2  95 25 0 0 10
2  96 26 0 0 10
4 G1 25 0 26 0
0

0101000
+48 5 -48 7 *
Ed
 1e-07 1 1 0
1  49 0 0 1
2  97 25 8 0 1
2  98 25 9 0 1
0

0101000
+53 0 -48 0 *
Wi

0101100
+52 0 -47 0 -46 5 +46 7 *
Fa
0  1e-07 25 0

0101000
+45 0 *
Ve
1e-07
63.400391 -199.04297 0
0 0

0101101
*
Ed
 1e-07 1 1 0
1  50 0 0 10
2  99 26 0 0 10
2  100 27 0 0 10
4 G1 26 0 27 0
0

0101000
+43 5 -43 7 *
Ed
 1e-07 1 1 0
1  51 0 0 1
2  101 26 8 0 1
2  102 26 9 0 1
0

0101000
+48 0 -43 0 *
Wi

0101100
+47 0 -42 0 -41 5 +41 7 *
Fa
0  1e-07 26 0

0101000
+40 0 *
Ve
1e-07
50.824219 -174.1875 0
0 0

0101101
*
Ed
 1e-07 1 1 0
1  52 0 0 10
2  103 27 0 0 10
2  104 28 0 0 10
4 G1 27 0 28 0
0

0101000
+38 5 -38 7 *
Ed
 1e-07 1 1 0
1  53 0 0 1
2  105 27 8 0 1
2  106 27 9 0 1
0

0101000
+43 0 -38 0 *
Wi

0101100
+42 0 -37 0 -36 5 +36 7 *
Fa
0  1e-07 27 0

0101000
+35 0 *
Ve
1e-07
56.435547 -149.72461 0
0 0

0101101
*
Ed
 1e-07 1 1 0
1  54 0 0 10
2  107 28 0 0 10
2  108 29 0 0 10
4 C1 28 0 29 0
0

0101000
+33 5 -33 7 *
Ed
 1e-07 1 1 0
1  55 0 0 1
2  109 28 8 0 1
2  110 28 9 0 1
0

0101000
+38 0 -33 0 *
Wi

0101100
+37 0 -32 0 -31 5 +31 7 *
Fa
0  1e-07 28 0

0101000
+30 0 *
Ve
1e-07
65.492187 -125.73242 0
0 0

0101101
*
Ed
 1e-07 1 1 0
1  56 0 0 10
2  111 29 0 0 10
2  112 30 0 0 10
4 G1 29 0 30 0
0

0101000
+28 5 -28 7 *
Ed
 1e-07 1 1 0
1  57 0 0 1
2  113 29 8 0 1
2  114 29 9 0 1
0

0101000
+33 0 -28 0 *
Wi

0101100
+32 0 -27 0 -26 5 +26 7 *
Fa
0  1e-07 29 0

0101000
+25 0 *
Ve
1e-07
63.708984 -102.26367 0
0 0

0101101
*
Ed
 1e-07 1 1 0
1  58 0 0 10
2  115 30 0 0 10
2  116 31 0 0 10
4 G1 30 0 31 0
0

0101000
+23 5 -23 7 *
Ed
 1e-07 1 1 0
1  59 0 0 1
2  117 30 8 0 1
2  118 30 9 0 1
0

0101000
+28 0 -23 0 *
Wi

0101100
+27 0 -22 0 -21 5 +21 7 *
Fa
0  1e-07 30 0

0101000
+20 0 *
Ve
1e-07
62.216797 -85.302734 0
0 0

0101101
*
Ed
 1e-07 1 1 0
1  60 0 0 10
2  119 31 0 0 10
2  120 32 0 0 10
4 G1 31 0 32 0
0

0101000
+18 5 -18 7 *
Ed
 1e-07 1 1 0
1  61 0 0 1
2  121 31 8 0 1
2  122 31 9 0 1
0

0101000
+23 0 -18 0 *
Wi

0101100
+22 0 -17 0 -16 5 +16 7 *
Fa
0  1e-07 31 0

0101000
+15 0 *
Ve
1e-07
73.330078 -78.324219 0
0 0

0101101
*
Ed
 1e-07 1 1 0
1  62 0 0 10
2  123 32 0 0 10
2  124 18 0 0 10
4 G1 32 0 18 0
0

0101000
+13 5 -13 7 *
Ed
 1e-07 1 1 0
1  63 0 0 1
2  125 32 8 0 1
2  126 32 9 0 1
0

0101000
+18 0 -13 0 *
Wi

0101100
+17 0 -12 0 -11 5 +11 7 *
Fa
0  1e-07 32 0

0101000
+10 0 *
Ed
 1e-07 1 1 0
1  64 0 0 1
2  127 18 8 0 1
2  128 18 9 0 1
0

0101000
+13 0 -85 0 *
Wi

0101100
+12 0 -84 0 -8 5 +8 7 *
Fa
0  1e-07 18 0

0101000
+7 0 *
Wi

0101100
+161 0 +156 0 +151 0 +146 0 +141 0 +136 0 +131 0 +126 0 +121 0 +116 0 
+111 0 +106 0 +101 0 +96 0 +91 0 +88 0 *
Wi

0101100
+81 0 +76 0 +71 0 +66 0 +61 0 +56 0 +51 0 +46 0 +41 0 +36 0 
+31 0 +26 0 +21 0 +16 0 +11 0 +8 0 *
Fa
0  1e-07 33 0

0101000
+5 11 +4 11 *
Sh

0101100
+159 0 +154 0 +149 0 +144 0 +139 0 +134 0 +129 0 +124 0 +119 0 +114 0 
+109 0 +104 0 +99 0 +94 0 +89 0 +86 0 +79 0 +74 0 +69 0 +64 0 
+59 0 +54 0 +49 0 +44 0 +39 0 +34 0 +29 0 +24 0 +19 0 +14 0 
+9 0 +6 0 +3 10 -3 12 *
So

1100000
-2 0 *

+1 1 