DBRep_DrawableShape

CASCADE Topology V1, (c) Matra-Datavision
Locations 25
1
              1               0               0               0 
              0               1               0               0 
              0               0               1               0 
1
              1               0               0               0 
              0               1               0               0 
              0               0               1               0 
1
              1               0               0               0 
              0               1               0               0 
              0               0               1               0 
2  2 1 3 -1 0
1
              1               0               0               0 
              0               1               0               0 
              0               0               1               0 
1
              1               0               0               0 
              0               1               0               0 
              0               0               1               0 
1
              1               0               0               0 
              0               1               0               0 
              0               0               1               0 
2  5 1 6 1 7 -1 0
1
              1               0               0               0 
              0               1               0               0 
              0               0               1             2.8 
2  5 1 6 1 7 -1 9 1 0
2  5 1 6 1 7 -1 2 1 3 -1 0
2  3 1 2 -1 7 1 6 -1 5 -1 0
2  5 1 6 1 7 -1 9 1 2 1 3 -1 0
2  3 1 2 -1 9 -1 7 1 6 -1 5 -1 0
2  7 -1 9 1 2 1 3 -1 0
2  5 1 6 1 0
2  7 1 6 -1 5 -1 0
2  9 -1 7 1 6 -1 5 -1 0
2  7 -1 2 1 3 -1 0
1
              1               0               0              -0 
              0               1               0              -0 
              0               0               1            -1.2 
2  3 -1 20 1 0
1
              1               0               0               0 
              0               1               0               0 
              0               0               1               0 
1
              1               0               0               0 
              0               1               0               0 
              0               0               1               0 
2  22 1 23 1 0
2  20 -1 3 1 23 -1 22 -1 0
Curve2ds 18
1 0 0 0 -1 
1 3.4127608652832517 0 0 -1 
1 3.4127608652834578 0 0 -1 
2 2.3417886457818711e-17 3.6930338068460866 1 0 -0 1 4
1 0 -2.7999999999999998 1 0 
1 -6.2831853071795862 -2.7999999999999998 1 0 
2 2.3417886457818711e-17 3.6930338068460866 1 0 -0 1 4
1 0 0 1 0 
1 0 -2.7999999999999998 1 0 
1 0 0 0 -1 
1 6.0120170954861294 0 0 -1 
1 6.0120170954859207 0 0 -1 
2 2.3417886457818711e-17 3.6930338068460866 1 0 -0 1 4
1 0 0 1 0 
1 6.2831853071795862 0 0 1 
1 0 0 0 1 
2 2.5639502485114189e-16 -3.4950380981596996e-16 1 0 -0 1 4
1 0 1.2 1 0 
Curves 12
1 -3.8538345600618853 -1.0714285714281728 0 0 0 1 
1 -0.96345864001541592 -11.467857142857241 0 0 0 1 
1 -3.8538345600618853 -1.0714285714281728 0 0.2678571428571429 -0.96345864001544357 0 
2 0 0 2.7999999999999998 0 0 1 1 0 0 0 1 0 4
2 0 0 2.7999999999999998 0 0 1 1 0 0 0 1 0 4
2 0 -11.199999999999999 0 0 0 1 1 0 0 0 1 0 1
1 3.8538345600618857 -1.0714285714281717 0 -0.2678571428571429 -0.96345864001544368 0 
1 3.8538345600618857 -1.0714285714281717 0 0 0 1 
1 0.9634586400154157 -11.467857142857243 0 0 0 1 
2 0 0 0 0 0 1 1 0 0 0 1 0 4
7 0 0  1 2 2  4 0 2.7999999999999998  4 0 -1.2000000000000002 
 -2.7999999999999998 2 1.2000000000000002 2
2 0 0 -1.2 0 0 1 1 0 0 0 1 0 4
Polygon3D 0
PolygonOnTriangulations 0
Surfaces 6
1 -3.8538345600618853 -1.0714285714281728 0 0.96345864001544368 0.26785714285714296 -0 0.26785714285714296 -0.96345864001544368 0 0 -0 -1 
10 0 6.2831853071795862 -2.7999999999999998 1.2000000000000002
2 0 0 0 -0 -0 -1 1 0 0 0 1 0 4
2 0 -11.199999999999999 0 -0 -0 -1 1 0 0 0 1 0 1
1 -2.3417886457818711e-17 -3.6930338068460866 0 0 0 1 1 0 -0 -0 1 0 
1 3.8538345600618857 -1.0714285714281717 0 0.96345864001544368 -0.2678571428571429 0 -0.2678571428571429 -0.96345864001544368 0 0 -0 -1 
1 -2.5639502485114189e-16 3.4950380981596996e-16 0 0 0 1 1 0 -0 -0 1 0 
Triangulations 0

TShapes 38
Ve
1.00000000993014e-07
-3.85383456006189 -1.07142857142817 0
0 0

0101101
*
Ve
1e-07
-3.85383456006189 -1.07142857142817 2.8
0 0

0101101
*
Ed
 1e-07 1 1 0
1  1 0 0 2.8
2  1 1 4 0 2.8
2  2 2 0 0 2.8
4 G1 1 4 2 0
0

0101000
+38 0 -37 0 *
Ve
1.00000000166533e-07
-0.963458640015416 -11.4678571428572 0
0 0

0101101
*
Ed
 1.00000000166533e-07 1 1 0
1  2 0 0 2.8
2  3 3 0 0 2.8
4 C1 1 0 3 0
0

0101000
+35 8 -35 10 *
Ed
 1e-07 1 1 0
1  3 0 0 10.7907367681735
0

0101000
+38 12 -35 0 *
Ed
 1e-07 1 1 0
1  3 0 0 10.7907367681735
0

0101000
+37 14 -35 0 *
Wi

0101100
+36 0 -34 4 -33 11 +32 13 *
Fa
0  1e-07 1 4

0101000
+31 0 *
Ve
1e-07
3.85383456006189 -1.07142857142817 2.8
0 0

0101101
*
Ve
1e-05
4 0 2.8
0 0

0101101
*
Ed
 1e-07 1 1 0
1  4 0 6.01201709548613 6.28318530717959
2  4 4 15 6.01201709548613 6.28318530717959
2  5 2 0 6.01201709548613 6.28318530717959
4 C0 4 15 2 0
0

0101000
+29 0 -28 0 *
Ed
 1e-07 1 1 0
1  5 0 6.28318530717959 9.69594617246284
2  6 2 0 6.28318530717959 9.69594617246284
2  7 4 15 6.28318530717959 9.69594617246284
4 C0 4 15 2 0
0

0101000
+28 0 -37 0 *
Ve
1.00000000055511e-07
0.963458640015416 -11.4678571428572 0
0 0

0101101
*
Ed
 1e-07 1 1 0
1  6 0 3.41276086528346 6.01201709548592
2  8 3 17 3.41276086528346 6.01201709548592
2  9 3 18 3.41276086528346 6.01201709548592
0

0101000
+35 0 -25 0 *
Ed
 1e-07 1 1 0
1  7 0 0 10.7907367681735
0

0101000
+29 14 -25 0 *
Wi

0101100
+27 14 +26 14 +32 0 +24 0 -23 0 *
Fa
0  1e-07 4 0

0101000
+22 16 *
Ve
1.00000001233214e-07
3.85383456006189 -1.07142857142817 0
0 0

0101101
*
Ed
 1e-07 1 1 0
1  8 0 0 2.8
2  10 5 4 0 2.8
2  11 2 0 0 2.8
4 G1 5 4 2 0
0

0101000
+20 0 -29 0 *
Ed
 1.00000000055511e-07 1 1 0
1  9 0 0 2.8
2  12 3 0 0 2.8
4 C1 3 0 5 0
0

0101000
+25 8 -25 10 *
Ed
 1e-07 1 1 0
1  7 0 0 10.7907367681735
0

0101000
+20 12 -25 0 *
Wi

0101100
+19 0 -18 4 -17 11 +23 13 *
Fa
0  1e-07 5 4

0101000
+16 0 *
Wi

0101100
+34 0 -18 0 -24 8 +24 10 *
Fa
0  1e-07 3 0

0101000
+14 0 *
Ed
 1e-07 1 1 0
1  10 0 3.41276086528325 6.01201709548613
2  13 4 19 3.41276086528325 6.01201709548613
2  14 2 0 3.41276086528325 6.01201709548613
4 C0 4 19 2 0
0

0101000
+38 0 -20 0 *
Wi

0101100
-17 11 +24 11 +33 11 -12 0 *
Fa
0  1e-07 4 19

0101000
+11 0 *
Ve
1e-05
4 0 -1.2
0 0

0101101
*
Ed
 1e-05 1 1 0
1  11 0 -2.8 1.2
3  15 16C0 2 0 -2.8 1.2
0

0101000
+28 0 -9 0 *
Ed
 1e-07 1 1 0
1  12 0 0 6.28318530717959
2  17 6 21 0 6.28318530717959
2  18 2 0 0 6.28318530717959
4 C0 2 0 6 21
0

0101000
+9 0 -9 0 *
Wi

0101100
+19 0 +27 0 +8 0 -7 0 -8 0 +26 0 -36 0 +12 0 *
Fa
0  1e-07 2 0

0101000
+6 0 *
Wi

0101100
+7 25 *
Fa
0  1e-07 6 0

0101000
+4 24 *
Sh

0101100
-30 0 +21 15 +15 0 -13 4 -10 0 -5 0 -3 21 *
So

0100000
+2 0 *

+1 1
